<svg width="256" height="256" viewBox="0 0 256 256" fill="none" xmlns="http://www.w3.org/2000/svg">
<rect width="256" height="256" rx="128" fill="#FDF2F8"/>
<circle cx="128" cy="128" r="104" fill="#F9A8D4"/>
<path d="M84 86L68 42L114 74L84 86Z" fill="#DB2777"/>
<path d="M172 86L188 42L142 74L172 86Z" fill="#DB2777"/>
<ellipse cx="128" cy="138" rx="70" ry="64" fill="#EC4899"/>
<ellipse cx="128" cy="148" rx="46" ry="40" fill="#FDF2F8"/>
<circle cx="102" cy="128" r="8" fill="#111827"/>
<circle cx="154" cy="128" r="8" fill="#111827"/>
<path d="M128 140C136.837 140 144 144.029 144 149C144 153.971 136.837 158 128 158C119.163 158 112 153.971 112 149C112 144.029 119.163 140 128 140Z" fill="#111827"/>
<path d="M82 150H108" stroke="#111827" stroke-width="6" stroke-linecap="round"/>
<path d="M148 150H174" stroke="#111827" stroke-width="6" stroke-linecap="round"/>
<path d="M86 162H108" stroke="#111827" stroke-width="6" stroke-linecap="round"/>
<path d="M148 162H170" stroke="#111827" stroke-width="6" stroke-linecap="round"/>
</svg>
